<svg width="32" height="32" viewBox="0 0 32 32" fill="none" xmlns="http://www.w3.org/2000/svg">
<g clip-path="url(#clip0_105_273)">
<path d="M16 1.10845e-10C11.7566 -1.57864e-05 7.68692 1.68568 4.68633 4.68625C1.68574 7.68682 1.59131e-05 11.7565 1.12663e-10 15.9999C-1.59128e-05 20.2434 1.68567 24.3131 4.68624 27.3137C7.6868 30.3143 11.7565 32 15.9999 32H16C20.2435 32 24.3131 30.3143 27.3137 27.3137C30.3143 24.3131 32 20.2435 32 16C32 11.7565 30.3143 7.68688 27.3137 4.68629C24.3131 1.68571 20.2435 1.10845e-10 16 1.10845e-10Z" fill="#FFD93D"/>
<path d="M15.0875 23C14.7502 23.0007 14.4219 22.8667 14.152 22.6183L14.1353 22.6029L10.612 19.2936C10.2829 18.9832 10.0676 18.525 10.0134 18.0198C9.95924 17.5146 10.0706 17.0037 10.3231 16.5993C10.5756 16.1949 10.9486 15.9301 11.36 15.8631C11.7714 15.7962 12.1877 15.9325 12.5173 16.2422L14.7994 18.3909L20.1922 9.75249C20.3172 9.55221 20.4732 9.38414 20.6512 9.25786C20.8291 9.13159 21.0256 9.0496 21.2293 9.01655C21.4331 8.9835 21.6402 9.00005 21.8387 9.06526C22.0373 9.13048 22.2234 9.24308 22.3865 9.39662L22.387 9.39704L22.3535 9.45409L22.3879 9.39704C22.717 9.70757 22.9323 10.1657 22.9865 10.6709C23.0408 11.1761 22.9296 11.6872 22.6774 12.0918L16.3342 22.248C16.1875 22.482 15.9988 22.6713 15.7828 22.8014C15.5669 22.9314 15.3294 22.9986 15.0888 22.9977L15.0875 23Z" fill="white"/>
</g>
<defs>
<clipPath id="clip0_105_273">
<rect width="32" height="32" fill="white"/>
</clipPath>
</defs>
</svg>
