<svg width="64" height="64" viewBox="0 0 64 64" fill="none" xmlns="http://www.w3.org/2000/svg">
<g clip-path="url(#clip0_107_355)">
<path d="M31.4584 63.5788C30.62 63.5755 29.7852 63.4493 28.9737 63.2031L28.8137 63.1513L28.6653 63.0644C23.3009 59.9205 18.7752 55.7679 15.2139 50.7218C12.266 46.5201 9.9676 41.7496 8.42218 36.6247C6.5741 30.489 5.68499 24.0148 5.7973 17.5112C5.79956 17.3747 5.80148 17.2693 5.80148 17.1966C5.80148 14.0352 7.30276 11.2613 9.62615 10.1297C11.4044 9.26361 27.5497 1.51203 28.7162 0.951953C30.9131 -0.334763 33.2568 0.739216 33.6319 0.927009C34.4732 1.32906 49.3985 8.46477 52.6239 10.26C55.9479 12.1102 56.8348 15.4341 56.8348 17.1064C56.8348 24.6774 55.7131 31.7531 53.5007 38.137C51.714 43.3042 49.1817 48.0746 46.014 52.2403C39.9025 60.2797 33.7892 63.1296 33.7302 63.1548C32.9996 63.4486 32.231 63.5921 31.4584 63.5788V63.5788ZM30.0208 59.4163C30.5508 59.5552 31.771 59.7635 32.5663 59.4244C33.5767 58.9937 38.6933 55.8922 43.4747 49.6028C50.0809 40.9128 53.4329 29.9889 53.4378 17.1343C53.426 16.8739 53.2677 15.0165 51.1634 13.8452C48.0006 12.0847 32.4869 4.66977 32.3306 4.59504L32.2877 4.5738C31.9626 4.41454 30.9279 4.07911 30.2147 4.51598L30.0719 4.59381C29.899 4.67682 12.7606 12.9048 10.9327 13.795C9.65412 14.4178 9.19855 15.9605 9.19855 17.1967C9.19855 17.287 9.19656 17.4184 9.19373 17.5882C9.04766 26.3838 10.7889 48.027 30.0208 59.4163Z" fill="#3F3D56"/>
<path d="M29.4262 2.75712C29.4262 2.75712 12.132 11.0598 10.2791 11.9622C8.42613 12.8647 7.49965 15.0306 7.49965 17.1965C7.49965 19.3624 6.10993 47.6247 29.4262 61.2894C29.4262 61.2894 31.5424 61.9738 33.1479 61.2894C34.7534 60.605 55.1359 49.0535 55.1359 17.1063C55.1359 17.1063 55.1359 13.8574 51.8932 12.0525C48.6506 10.2476 32.9728 2.75712 32.9728 2.75712C32.9728 2.75712 31.0476 1.76441 29.4262 2.75712Z" fill="#3F3D56"/>
<path opacity="0.2" d="M31.2791 9.25537V53.5471C31.2791 53.5471 48.7278 43.7295 48.5734 17.919L31.2791 9.25537Z" fill="black"/>
<path d="M52.9829 52.7593L41.9102 38.0742L39.1741 40.68L50.2468 55.3651L52.9829 52.7593Z" fill="#FFD93D"/>
<path d="M42.3656 36.2378L17.5547 3.33252L12.9162 7.75014L37.7271 40.6554L42.3656 36.2378Z" fill="#F0F5FA"/>
<path d="M17.4111 8.16491L17.6147 3.3833L13.1532 3.05749L12.9495 7.83909L17.4111 8.16491Z" fill="#F0F5FA"/>
<path opacity="0.05" d="M12.9271 7.71209L15.1854 5.67443L13.1326 3.02132L12.9271 7.71209Z" fill="black"/>
<path opacity="0.05" d="M37.7211 40.6632L39.9812 38.5107L15.1703 5.60545L12.9103 7.75794L37.7211 40.6632Z" fill="black"/>
<path opacity="0.1" d="M42.3636 36.2373L41.3379 34.877L36.6994 39.2946L37.7251 40.6549L42.3636 36.2373Z" fill="black"/>
<path opacity="0.1" d="M43.0371 39.5683L41.9094 38.0728L39.1733 40.6786L40.301 42.1741L43.0371 39.5683Z" fill="black"/>
<path d="M34.4883 47.484L48.6402 34.0059C49.4288 33.2548 49.5173 31.9155 48.8379 31.0144C48.1585 30.1133 46.9684 29.9917 46.1798 30.7428L32.0279 44.2208C31.2393 44.9719 31.1508 46.3112 31.8302 47.2123C32.5096 48.1134 33.6997 48.235 34.4883 47.484Z" fill="#FFD93D"/>
<path opacity="0.05" d="M50.3507 55.3838L51.7786 54.0239L41.7315 40.6992L40.3036 42.0592L50.3507 55.3838Z" fill="black"/>
<path opacity="0.1" d="M50.2383 55.3652L49.4333 54.2976C49.543 53.5668 49.8766 52.9066 50.3764 52.4311C50.8762 51.9556 51.5107 51.6947 52.1701 51.6937L52.9751 52.7614L50.2383 55.3652Z" fill="black"/>
<path d="M50.1905 57.0517C51.2095 58.4031 52.9938 58.586 54.1759 57.4601C55.3579 56.3343 55.4902 54.3262 54.4712 52.9748C53.4523 51.6234 51.668 51.4405 50.4859 52.5663C49.3038 53.6921 49.1715 55.7003 50.1905 57.0517Z" fill="#FFD93D"/>
<path opacity="0.05" d="M50.1806 57.0497C49.6922 56.4003 49.4494 55.5634 49.5054 54.7227C49.5614 53.882 49.9117 53.1064 50.4793 52.5663L54.1696 57.4618C53.8882 57.7299 53.5618 57.932 53.2089 58.0564C52.856 58.1808 52.4837 58.2251 52.1132 58.1868C51.7427 58.1485 51.3813 58.0284 51.0496 57.8333C50.718 57.6381 50.4227 57.3719 50.1806 57.0497V57.0497Z" fill="black"/>
<path d="M11.7683 55.4487L23.4348 41.1445L20.8033 38.4539L9.13672 52.758L11.7683 55.4487Z" fill="#FFD93D"/>
<path d="M25.1133 41.4032L51.2549 9.35156L46.7936 4.7901L20.652 36.8417L25.1133 41.4032Z" fill="#F0F5FA"/>
<path d="M46.9641 9.84598L51.2178 9.42529L50.9732 4.41848L46.7194 4.83917L46.9641 9.84598Z" fill="#F0F5FA"/>
<path opacity="0.05" d="M46.8289 4.79729L48.9009 7.03339L51.0025 4.39093L46.8289 4.79729Z" fill="black"/>
<path opacity="0.05" d="M20.6448 36.836L22.8186 39.0586L48.9603 7.00703L46.7865 4.78445L20.6448 36.836Z" fill="black"/>
<path opacity="0.1" d="M25.1129 41.4012L26.1936 40.0762L21.7323 35.5147L20.6516 36.8398L25.1129 41.4012Z" fill="black"/>
<path opacity="0.1" d="M22.2474 42.6013L23.4355 41.1445L20.804 38.4539L19.6159 39.9106L22.2474 42.6013Z" fill="black"/>
<path d="M14.2263 34.1626L27.8376 48.0797C28.5961 48.8552 29.7913 48.7724 30.5071 47.8946C31.223 47.0169 31.1885 45.6767 30.43 44.9012L16.8187 30.9841C16.0602 30.2086 14.865 30.2915 14.1492 31.1692C13.4333 32.0469 13.4678 33.3871 14.2263 34.1626Z" fill="#FFD93D"/>
<path opacity="0.05" d="M9.13201 52.8761L10.5054 54.2803L21.0912 41.3013L19.7179 39.8971L9.13201 52.8761Z" fill="black"/>
<path opacity="0.1" d="M9.13565 52.7498L9.98387 51.7099C10.6433 51.7331 11.2672 52.0148 11.7474 52.5063C12.2277 52.9979 12.5341 53.6683 12.6138 54.4016L11.7656 55.4415L9.13565 52.7498Z" fill="black"/>
<path d="M7.63863 52.9237C6.56498 54.2401 6.6163 56.2496 7.75326 57.4121C8.89023 58.5746 10.6823 58.4499 11.7559 57.1335C12.8296 55.8171 12.7783 53.8076 11.6413 52.6451C10.5043 51.4826 8.71228 51.6074 7.63863 52.9237Z" fill="#FFD93D"/>
<path opacity="0.05" d="M7.63859 52.9139C8.15458 52.2828 8.86588 51.8993 9.61614 51.8478C10.3664 51.7963 11.0942 52.081 11.6397 52.6393L7.75039 57.4068C7.47965 57.1301 7.26197 56.7943 7.1098 56.4187C6.95763 56.043 6.87396 55.6348 6.86358 55.2175C6.85319 54.8002 6.91629 54.3819 7.04928 53.9866C7.18227 53.5913 7.38252 53.2268 7.63859 52.9139V52.9139Z" fill="black"/>
</g>
<defs>
<clipPath id="clip0_107_355">
<rect width="64" height="64" fill="white"/>
</clipPath>
</defs>
</svg>
