<svg width="1112" height="837" viewBox="0 0 1112 837" fill="none" xmlns="http://www.w3.org/2000/svg">
<g clip-path="url(#clip0_104_80)">
<path opacity="0.25" d="M253.57 560.567C248.213 503.045 201.721 454.33 157.662 421.515C142.921 410.527 126.997 399.193 117.832 381.3C106.631 359.466 108.953 333.902 116.528 314.569C130.326 279.322 160.525 257.137 195.152 256.854C225.032 256.598 256.863 271.565 286.581 270.255C336.319 268.099 369.59 221.419 391.31 171.819C406.667 136.732 421.638 95.6952 454.975 87.2997C478.433 81.3696 506.019 93.8855 529.216 112.658C540.42 121.725 551.445 132.537 563.787 136.583C571.112 138.989 578.392 138.794 585.349 137.875C648.946 129.451 691.672 63.8075 756.343 59.9167C800.02 57.2577 847.503 84.1104 886.258 121.904C925.012 159.697 956.391 207.835 986.108 256.085C1007.23 290.373 1028.74 327.928 1031.54 366.692C1034.54 407.711 1014.87 441.886 987.479 458.623C960.084 475.361 925.848 476.932 892.094 472.854C849.879 467.772 804.889 454.536 768.168 470.392C743.142 481.188 724.948 504.394 705.337 524.577C672.569 558.314 634.587 584.505 596.481 610.007C560.006 634.41 522.871 658.508 481.22 671.557C451.698 680.818 420.486 677.2 390.207 682.42C370.464 685.819 353.95 696.891 333.249 697.133C307.75 697.475 276.423 686.165 260.826 653.714C245.972 622.895 256.418 591.094 253.57 560.567Z" fill="#FFD93D"/>
<path d="M790.08 13.6198L721.78 9.47985L682.26 6.65985V6.58984H681.77H681.22V6.66985L468.71 23.6698H451.09L449.02 97.0199L483.23 109.08L503.96 214.58L409.63 401.45L352.63 444.65V485.84L386.84 519L388.91 670.72L399.28 672.72V671.11L404.49 672.11V672.71L606.94 740.79L615.45 746.56L633.25 735.47L776.65 652.62L790.08 13.6198ZM572.43 484.94L627.89 437.94L572.43 484.94ZM380.08 504.44L395.08 519.01V519.91L380.08 504.44Z" fill="url(#paint0_linear_104_80)"/>
<path d="M407.35 522.08L609.35 573.08L579.35 539.08L562.35 518.08L385.35 483.08L377.35 490.08L407.35 522.08Z" fill="#535461"/>
<path d="M377.35 490.08L576.35 536.08L577.35 488.08L520.35 466.08L406.35 447.08H373.35L377.35 490.08Z" fill="#D6D6E3"/>
<path d="M521.35 218.08L724.35 231.08V193.08L710.35 108.08L703.35 102.08L500.35 108.08L521.35 218.08Z" fill="#D6D6E3"/>
<path d="M473.35 27.0801H463.35L461.35 100.08L494.35 112.08L514.35 217.08L423.35 403.08L368.35 446.08V487.08L401.35 520.08L403.35 671.08L413.35 673.08L411.35 523.08L378.35 488.08L377.35 446.08L430.35 404.08L523.35 218.08L503.35 112.08L470.35 98.0801L473.35 27.0801Z" fill="#D6D6E3"/>
<path d="M465.35 27.0801H455.35L453.35 100.08L486.35 112.08L506.35 217.08L415.35 403.08L360.35 446.08V487.08L393.35 520.08L395.35 671.08L405.35 673.08L403.35 523.08L370.35 488.08L369.35 446.08L424.35 404.08L515.35 218.08L495.35 112.08L462.35 98.0801L465.35 27.0801Z" fill="#535461"/>
<path d="M464.85 92.5801L469.85 99.5801L497.85 112.58L719.85 106.58L698.35 100.08L675.35 90.0801L678.35 82.0801L464.85 92.5801Z" fill="#A8A8A8"/>
<path d="M427.35 407.08L630.35 440.08L671.35 353.08L727.35 228.08L521.35 218.08L427.35 407.08Z" fill="#FFD93D"/>
<g opacity="0.1">
<path opacity="0.1" d="M532.35 254.08L669.35 265.08L598.35 405.08L465.35 385.08L532.35 254.08Z" fill="white"/>
</g>
<g opacity="0.1">
<path opacity="0.1" d="M541.8 264.25L547.85 264.74L544.72 270.91L538.85 270.03L541.8 264.25Z" fill="white"/>
</g>
<g opacity="0.1">
<path opacity="0.1" d="M542.8 322.25L548.85 322.74L545.72 328.91L539.85 328.03L542.8 322.25Z" fill="white"/>
</g>
<g opacity="0.1">
<path opacity="0.1" d="M575.8 271.25L581.85 271.74L578.72 277.91L572.85 277.03L575.8 271.25Z" fill="white"/>
</g>
<g opacity="0.1">
<path opacity="0.1" d="M638.8 274.25L644.85 274.74L641.72 280.91L635.85 280.03L638.8 274.25Z" fill="white"/>
</g>
<g opacity="0.1">
<path opacity="0.1" d="M553.8 282.25L559.85 282.74L556.72 288.91L550.85 288.03L553.8 282.25Z" fill="white"/>
</g>
<g opacity="0.1">
<path opacity="0.1" d="M575.8 343.25L581.85 343.74L578.72 349.91L572.85 349.03L575.8 343.25Z" fill="white"/>
</g>
<g opacity="0.1">
<path opacity="0.1" d="M521.8 308.25L527.85 308.74L524.72 314.91L518.85 314.03L521.8 308.25Z" fill="white"/>
</g>
<g opacity="0.1">
<path opacity="0.1" d="M613.8 271.25L619.85 271.74L616.72 277.91L610.85 277.03L613.8 271.25Z" fill="white"/>
</g>
<g opacity="0.1">
<path opacity="0.1" d="M565.8 305.25L571.85 305.74L568.72 311.91L562.85 311.03L565.8 305.25Z" fill="white"/>
</g>
<g opacity="0.1">
<path opacity="0.1" d="M558.8 267.25L564.85 267.74L561.72 273.91L555.85 273.03L558.8 267.25Z" fill="white"/>
</g>
<g opacity="0.1">
<path opacity="0.1" d="M589.8 302.25L595.85 302.74L592.72 308.91L586.85 308.03L589.8 302.25Z" fill="white"/>
</g>
<g opacity="0.1">
<path opacity="0.1" d="M596.8 271.25L602.85 271.74L599.72 277.91L593.85 277.03L596.8 271.25Z" fill="white"/>
</g>
<g opacity="0.1">
<path opacity="0.1" d="M533.8 285.25L539.85 285.74L536.72 291.91L530.85 291.03L533.8 285.25Z" fill="white"/>
</g>
<path d="M373.35 447.08L571.35 487.08L625.89 439.36L427.85 405.58L373.35 447.08Z" fill="#D6D6E3"/>
<path d="M410.35 517.08V673.08L606.35 741.08L609.35 579.08L601.35 564.01L565.35 555.08L410.35 517.08Z" fill="#535461"/>
<path d="M435.85 425.08C440.545 425.08 444.35 422.842 444.35 420.08C444.35 417.319 440.545 415.08 435.85 415.08C431.156 415.08 427.35 417.319 427.35 420.08C427.35 422.842 431.156 425.08 435.85 425.08Z" fill="#575988"/>
<path d="M442.85 436.08C447.545 436.08 451.35 433.842 451.35 431.08C451.35 428.319 447.545 426.08 442.85 426.08C438.156 426.08 434.35 428.319 434.35 431.08C434.35 433.842 438.156 436.08 442.85 436.08Z" fill="#FA595F"/>
<path d="M418.85 433.08C423.545 433.08 427.35 430.842 427.35 428.08C427.35 425.319 423.545 423.08 418.85 423.08C414.156 423.08 410.35 425.319 410.35 428.08C410.35 430.842 414.156 433.08 418.85 433.08Z" fill="#FFD037"/>
<path d="M526.85 443.08C531.545 443.08 535.35 440.842 535.35 438.08C535.35 435.319 531.545 433.08 526.85 433.08C522.156 433.08 518.35 435.319 518.35 438.08C518.35 440.842 522.156 443.08 526.85 443.08Z" fill="#575988"/>
<path d="M509.85 452.08C514.545 452.08 518.35 449.842 518.35 447.08C518.35 444.319 514.545 442.08 509.85 442.08C505.156 442.08 501.35 444.319 501.35 447.08C501.35 449.842 505.156 452.08 509.85 452.08Z" fill="#FFD037"/>
<path d="M477.85 438.08C484.754 438.08 490.35 435.394 490.35 432.08C490.35 428.766 484.754 426.08 477.85 426.08C470.947 426.08 465.35 428.766 465.35 432.08C465.35 435.394 470.947 438.08 477.85 438.08Z" fill="#A8A8A8"/>
<path d="M535.85 454.08C540.545 454.08 544.35 451.842 544.35 449.08C544.35 446.319 540.545 444.08 535.85 444.08C531.156 444.08 527.35 446.319 527.35 449.08C527.35 451.842 531.156 454.08 535.85 454.08Z" fill="#FA595F"/>
<path d="M481.35 431.09H475.35L470.19 411.17C469.973 410.332 469.951 409.456 470.126 408.608C470.3 407.76 470.666 406.963 471.196 406.279C471.726 405.594 472.406 405.04 473.183 404.659C473.96 404.278 474.814 404.08 475.68 404.08V404.08C477.184 404.08 478.626 404.677 479.689 405.741C480.753 406.804 481.35 408.246 481.35 409.75V431.09Z" fill="#A8A8A8"/>
<path d="M567.85 454.08C574.754 454.08 580.35 451.394 580.35 448.08C580.35 444.766 574.754 442.08 567.85 442.08C560.947 442.08 555.35 444.766 555.35 448.08C555.35 451.394 560.947 454.08 567.85 454.08Z" fill="#A8A8A8"/>
<path d="M571.35 447.09H565.35L560.19 427.17C559.973 426.332 559.951 425.456 560.126 424.608C560.3 423.76 560.666 422.963 561.196 422.279C561.726 421.594 562.406 421.04 563.183 420.659C563.96 420.278 564.814 420.08 565.68 420.08V420.08C567.184 420.08 568.626 420.677 569.689 421.741C570.753 422.804 571.35 424.246 571.35 425.75V447.09Z" fill="#A8A8A8"/>
<path d="M472.35 27.0801L678.35 10.0801L673.35 85.0801L467.35 95.0801L472.35 27.0801Z" fill="#535461"/>
<path d="M677.35 10.0801L772.35 17.0801L759.35 653.08L613.85 746.58L603.85 739.58L603.35 573.08L571.35 537.08V487.08L627.35 438.08L722.35 227.08L708.85 106.58H715.85L671.35 91.0801L677.35 10.0801Z" fill="#D6D6E3"/>
<path d="M686.35 11.0801L782.35 17.0801L769.35 653.08L613.35 746.08V573.08L581.35 537.08V487.08L637.35 438.08L732.35 227.08L715.35 106.08L681.35 91.0801L686.35 11.0801Z" fill="#535461"/>
<path d="M517.46 396.38C503.46 425.38 469 417.86 469 417.86C467.22 416.21 456.08 413.45 447.63 411.54C442.21 410.31 437.9 409.45 437.9 409.45L449.73 392.96L458.6 394.78L471.83 397.5C471.83 397.5 531.51 367.39 517.46 396.38Z" fill="url(#paint1_linear_104_80)"/>
<g opacity="0.08">
<path opacity="0.08" d="M517.46 396.38C503.46 425.38 469 417.86 469 417.86C467.22 416.21 456.08 413.45 447.63 411.54C442.21 410.31 437.9 409.45 437.9 409.45L449.73 392.96L458.6 394.78L471.83 397.5C471.83 397.5 531.51 367.39 517.46 396.38Z" fill="url(#paint2_linear_104_80)"/>
</g>
<g opacity="0.1">
<path opacity="0.1" d="M458.61 394.78L447.61 411.55C442.19 410.32 437.88 409.46 437.88 409.46L449.71 392.97L458.61 394.78Z" fill="url(#paint3_linear_104_80)"/>
</g>
<path d="M335.63 334.84C335.63 334.84 387.2 415.43 442.42 415.24L457.42 392.24C457.42 392.24 406.88 356.14 400.16 337.32C397.68 330.32 392.56 320.73 387.1 311.32C370.33 282.49 325.1 301.32 335.04 333C335.233 333.626 335.43 334.24 335.63 334.84Z" fill="url(#paint4_linear_104_80)"/>
<g opacity="0.05">
<path opacity="0.05" d="M335.63 334.84C335.63 334.84 387.2 415.43 442.42 415.24L457.42 392.24C457.42 392.24 406.88 356.14 400.16 337.32C397.68 330.32 392.56 320.73 387.1 311.32C370.33 282.49 325.1 301.32 335.04 333C335.233 333.626 335.43 334.24 335.63 334.84Z" fill="url(#paint5_linear_104_80)"/>
</g>
<path d="M302.06 803.27L304.48 831.27C304.48 831.27 383.69 818.11 383 791.8C382.31 765.49 302.06 803.27 302.06 803.27Z" fill="url(#paint6_linear_104_80)"/>
<g opacity="0.1">
<path opacity="0.1" d="M302.06 803.27L304.48 831.27C304.48 831.27 383.69 818.11 383 791.8C382.31 765.49 302.06 803.27 302.06 803.27Z" fill="url(#paint7_linear_104_80)"/>
</g>
<path d="M394.76 812.04L393.38 836.33C393.38 836.33 503.38 828.23 499.22 805.33C495.06 782.43 436.96 795.17 436.96 795.17L394.76 812.04Z" fill="url(#paint8_linear_104_80)"/>
<path d="M396.14 574.54C396.14 574.54 389.64 592.54 381.34 613.16C373.4 632.9 363.82 655.09 356.71 666.3C342.18 689.24 340.11 760.09 340.11 760.09C337.34 771.56 351.18 793.83 351.18 793.83C323.51 822.83 297.91 805.98 297.91 805.98C302.75 797.21 294.45 772.24 294.45 772.24C294.45 772.24 305.52 656.86 312.45 651.46C319.38 646.06 324.9 619.07 324.9 619.07L318.71 527.35L317.29 506.35L376.78 480.04L381.07 500.96L385.32 521.67L396.14 574.54Z" fill="url(#paint9_linear_104_80)"/>
<g opacity="0.1">
<path opacity="0.1" d="M396.14 574.54C396.14 574.54 389.64 592.54 381.34 613.16C373.4 632.9 363.82 655.09 356.71 666.3C342.18 689.24 340.11 760.09 340.11 760.09C337.34 771.56 351.18 793.83 351.18 793.83C323.51 822.83 297.91 805.98 297.91 805.98C302.75 797.21 294.45 772.24 294.45 772.24C294.45 772.24 305.52 656.86 312.45 651.46C319.38 646.06 324.9 619.07 324.9 619.07L318.71 527.35L317.29 506.35L376.78 480.04L381.07 500.96L385.32 521.67L396.14 574.54Z" fill="url(#paint10_linear_104_80)"/>
</g>
<path d="M448.02 797.88C435.57 819.47 392.02 816.77 392.02 816.77V753.34C392.02 753.34 379.57 682.49 386.49 666.34C393.41 650.19 383.72 620.46 383.72 620.46L381.34 613.17L353.13 526.17L344.95 500.95H438.34C438.34 500.95 438.34 505.27 438.34 512.29C438.46 539.29 439.02 606.2 441.77 621.73C445.23 641.3 435.54 654.12 435.54 654.12C435.54 654.12 441.07 733.74 436.23 758.7C431.39 783.66 448.02 797.88 448.02 797.88Z" fill="url(#paint11_linear_104_80)"/>
<path d="M371.24 204.78C371.24 204.78 356.71 243.91 327.66 258.08C298.61 272.25 375.39 276.3 375.39 276.3C375.39 276.3 387.84 246.61 416.2 225.69L371.24 204.78Z" fill="url(#paint12_linear_104_80)"/>
<g opacity="0.1">
<path opacity="0.1" d="M438.37 512.33C426.79 514.56 406.3 518.38 385.31 521.7C374.31 523.44 363.19 525.04 353.13 526.2C337.65 527.99 324.7 528.74 318.7 527.34L317.28 506.34L376.77 480.03L381.06 500.95H438.34C438.34 500.95 438.34 505.31 438.37 512.33Z" fill="url(#paint13_linear_104_80)"/>
</g>
<path d="M448.02 508.41C448.02 508.41 331.11 532.03 316.59 524.61C302.07 517.19 298.59 498.3 302.75 477.38C306.91 456.46 302.75 404.51 295.14 338.38C291.31 305.08 299.75 282.73 309.09 268.75C313.19 262.724 318.709 257.8 325.162 254.411C331.615 251.022 338.802 249.274 346.09 249.32C358.735 249.269 371.025 253.498 380.96 261.32C383.88 263.65 386.83 265.56 389.24 266.21C391.14 266.72 394 268.74 397.24 271.49C411.668 283.915 420.724 301.444 422.51 320.4C423.71 332.97 424.98 348.8 425.6 364.8C426.237 378.464 426.097 392.153 425.18 405.8C424.538 415.792 425.014 425.824 426.6 435.71C431.99 472.17 448.02 508.41 448.02 508.41Z" fill="url(#paint14_linear_104_80)"/>
<g opacity="0.1">
<path opacity="0.1" d="M426.61 435.76C384.18 409.94 362.24 337.7 362.24 337.7C362.24 337.07 362.24 336.45 362.17 335.84C361.22 302.71 410 296.33 418.28 328.48C420.97 338.95 423.28 349.57 423.76 356.91C424.022 359.611 424.644 362.264 425.61 364.8C426.247 378.464 426.107 392.152 425.19 405.8C424.544 415.808 425.02 425.858 426.61 435.76V435.76Z" fill="url(#paint15_linear_104_80)"/>
</g>
<g opacity="0.1">
<path opacity="0.1" d="M363.97 228.06C370.87 239.47 376.33 250.96 390.34 252.91C397.219 244.182 405.214 236.396 414.12 229.75L369.12 208.83C369.12 208.83 371.76 215.97 363.97 228.06Z" fill="url(#paint16_linear_104_80)"/>
</g>
<path d="M398.91 249.3C424.127 249.3 444.57 229.363 444.57 204.77C444.57 180.177 424.127 160.24 398.91 160.24C373.693 160.24 353.25 180.177 353.25 204.77C353.25 229.363 373.693 249.3 398.91 249.3Z" fill="url(#paint17_linear_104_80)"/>
<g opacity="0.1">
<path opacity="0.1" d="M444.04 218.74C445.929 218.821 447.799 218.326 449.4 217.32C451.59 215.73 452.29 212.88 452.79 210.26C453.98 204.07 454.91 197.55 452.79 191.59C451.42 187.65 448.79 184.24 446.95 180.5C442.85 172.33 442.12 162.5 436.27 155.41C432.62 150.97 419.79 155.41 414.43 153.17C402.91 148.33 397.91 138.51 385.36 138.52C380.761 138.408 376.171 138.981 371.74 140.22C366.13 141.95 361.17 145.22 356.56 148.81C348.56 155.03 340.72 163.57 341.43 173.55C341.89 179.92 345.78 185.55 348.07 191.49C351.91 201.49 351.21 212.73 348.44 223.09C347.26 227.5 345.91 232.77 349.04 236.14C351.04 238.25 354.21 238.85 357.04 238.39C359.863 237.765 362.565 236.684 365.04 235.19C369.54 232.8 374.1 230.37 377.74 226.86C380.15 224.54 382.09 221.8 384.38 219.37C388.864 214.723 393.941 210.689 399.48 207.37C403.91 204.71 408.48 206.37 413.13 208.1C423.35 211.85 432.8 218.94 444.04 218.74Z" fill="url(#paint18_linear_104_80)"/>
</g>
<path d="M443.35 218.06C445.239 218.141 447.109 217.646 448.71 216.64C450.9 215.05 451.6 212.2 452.1 209.58C453.29 203.39 454.22 196.87 452.1 190.91C450.73 186.97 448.1 183.56 446.26 179.82C442.16 171.65 441.43 161.82 435.58 154.73C431.93 150.29 419.79 155.41 414.43 153.16C402.91 148.32 397.22 137.83 384.67 137.84C380.071 137.728 375.481 138.301 371.05 139.54C365.44 141.27 360.48 144.54 355.87 148.13C347.87 154.35 340.03 162.89 340.74 172.87C341.2 179.24 345.09 184.87 347.38 190.81C351.22 200.81 350.52 212.05 347.75 222.41C346.57 226.82 345.22 232.09 348.35 235.46C350.35 237.57 353.52 238.17 356.35 237.71C359.173 237.084 361.875 236.004 364.35 234.51C368.85 232.12 373.41 229.69 377.05 226.18C379.46 223.86 381.4 221.12 383.69 218.69C388.174 214.043 393.251 210.008 398.79 206.69C403.22 204.03 407.79 205.69 412.44 207.42C422.66 211.17 432.11 218.26 443.35 218.06Z" fill="url(#paint19_linear_104_80)"/>
<g opacity="0.05">
<path opacity="0.05" d="M426.61 435.76C425.024 425.874 424.548 415.842 425.19 405.85C426.107 392.202 426.247 378.514 425.61 364.85C424.99 348.85 423.73 333.02 422.52 320.45C420.726 301.474 411.647 283.932 397.19 271.51C393.98 268.76 391.12 266.73 389.19 266.23C386.78 265.59 383.83 263.67 380.91 261.34C371.09 253.51 383.57 268.76 386.78 271.51C401.237 283.932 410.316 301.474 412.11 320.45C413.31 333.02 414.58 348.85 415.2 364.85C415.837 378.514 415.697 392.202 414.78 405.85C414.138 415.842 414.614 425.874 416.2 435.76C421.58 472.19 437.61 508.41 437.61 508.41C437.61 508.41 359.35 524.22 322.93 525.9C351.47 527.9 447.98 508.41 447.98 508.41C447.98 508.41 431.99 472.17 426.61 435.76Z" fill="url(#paint20_linear_104_80)"/>
</g>
<path d="M522.04 442.29C500.59 466.58 469.47 450.39 469.47 450.39C468.2 448.33 458.22 442.78 450.61 438.74C445.72 436.15 441.8 434.19 441.8 434.19L457.71 421.37L465.76 425.43L477.76 431.49C477.76 431.49 543.51 418 522.04 442.29Z" fill="url(#paint21_linear_104_80)"/>
<g opacity="0.1">
<path opacity="0.1" d="M465.76 425.43L450.61 438.74C445.72 436.15 441.8 434.19 441.8 434.19L457.71 421.37L465.76 425.43Z" fill="url(#paint22_linear_104_80)"/>
</g>
<path d="M363.63 335.68C363.63 335.68 391.3 426.77 444.57 440.94L465.32 422.72C465.32 422.72 426.51 374.78 425.15 354.89C424.66 347.54 422.36 336.89 419.67 326.46C411.39 294.32 362.61 300.69 363.56 333.82C363.58 334.433 363.603 335.053 363.63 335.68Z" fill="url(#paint23_linear_104_80)"/>
<path opacity="0.05" d="M310.02 424.41C310.02 424.41 328.02 410.24 344.61 421.04C361.2 431.84 385.42 430.49 388.88 431.16" fill="url(#paint24_linear_104_80)"/>
<path d="M512.28 394.9C498.93 423.18 466.16 415.9 466.16 415.9C464.46 414.29 453.86 411.6 445.83 409.74C440.67 408.54 436.57 407.74 436.57 407.74L447.83 391.65L456.27 393.43L468.86 396.08C468.86 396.08 525.63 366.61 512.28 394.9Z" fill="#F7C4A7"/>
<path opacity="0.08" d="M512.28 394.9C498.93 423.18 466.16 415.9 466.16 415.9C464.46 414.29 453.86 411.6 445.83 409.74C440.67 408.54 436.57 407.74 436.57 407.74L447.83 391.65L456.27 393.43L468.86 396.08C468.86 396.08 525.63 366.61 512.28 394.9Z" fill="black"/>
<path opacity="0.1" d="M456.27 393.33L445.83 409.69C440.67 408.49 436.57 407.69 436.57 407.69L447.83 391.6L456.27 393.33Z" fill="black"/>
<path d="M339.24 334.85C339.24 334.85 388.32 413.49 440.86 413.29L455.15 390.89C455.15 390.89 407.06 355.67 400.66 337.3C398.3 330.52 393.43 321.12 388.24 311.96C372.24 283.84 329.24 302.21 338.69 333.12C338.87 333.687 339.053 334.263 339.24 334.85Z" fill="#575988"/>
<path opacity="0.05" d="M339.24 334.85C339.24 334.85 388.32 413.49 440.86 413.29L455.15 390.89C455.15 390.89 407.06 355.67 400.66 337.3C398.3 330.52 393.43 321.12 388.24 311.96C372.24 283.84 329.24 302.21 338.69 333.12C338.87 333.687 339.053 334.263 339.24 334.85Z" fill="black"/>
<path d="M307.29 791.9L309.59 819.22C309.59 819.22 384.97 806.38 384.31 780.71C383.65 755.04 307.29 791.9 307.29 791.9Z" fill="#535461"/>
<path opacity="0.1" d="M307.29 791.9L309.59 819.22C309.59 819.22 384.97 806.38 384.31 780.71C383.65 755.04 307.29 791.9 307.29 791.9Z" fill="black"/>
<path d="M395.51 800.46L394.19 824.17C394.19 824.17 498.87 816.27 494.92 793.89C490.97 771.51 435.67 784.01 435.67 784.01L395.51 800.46Z" fill="#535461"/>
<path d="M396.82 568.72C396.82 568.72 390.63 586.26 382.73 606.4C375.17 625.66 366.05 647.31 359.29 658.25C345.51 680.64 343.51 749.76 343.51 749.76C340.88 760.95 354.04 782.68 354.04 782.68C327.71 810.99 303.35 794.53 303.35 794.53C307.96 785.97 300.06 761.61 300.06 761.61C300.06 761.61 310.59 649.03 317.18 643.77C323.77 638.51 329.02 612.17 329.02 612.17L323.13 522.68L321.78 502.23L378.4 476.55L382.51 496.96L386.51 517.17L396.82 568.72Z" fill="#6A5C99"/>
<path opacity="0.1" d="M396.82 568.72C396.82 568.72 390.63 586.26 382.73 606.4C375.17 625.66 366.05 647.31 359.29 658.25C345.51 680.64 343.51 749.76 343.51 749.76C340.88 760.95 354.04 782.68 354.04 782.68C327.71 810.99 303.35 794.53 303.35 794.53C307.96 785.97 300.06 761.61 300.06 761.61C300.06 761.61 310.59 649.03 317.18 643.77C323.77 638.51 329.02 612.17 329.02 612.17L323.13 522.68L321.78 502.23L378.4 476.55L382.51 496.96L386.51 517.17L396.82 568.72Z" fill="black"/>
<path d="M446.2 786.63C434.35 807.7 392.87 805.06 392.87 805.06V743.17C392.87 743.17 381.02 674.04 387.6 658.24C394.18 642.44 384.97 613.47 384.97 613.47L382.73 606.39L355.88 521.55L348.1 496.95H436.98C436.98 496.95 436.98 501.16 436.98 508.02C437.09 534.35 437.63 599.65 440.25 614.8C443.54 633.89 434.32 646.4 434.32 646.4C434.32 646.4 439.59 724.08 434.98 748.4C430.37 772.72 446.2 786.63 446.2 786.63Z" fill="#6A5C99"/>
<path d="M373.12 207.95C373.12 207.95 359.29 246.13 331.64 259.95C303.99 273.77 377.07 277.73 377.07 277.73C377.07 277.73 388.92 248.73 415.91 228.35L373.12 207.95Z" fill="#F7C4A7"/>
<path opacity="0.1" d="M437.01 508.03C425.99 510.17 406.51 513.93 386.51 517.17C376.05 518.87 365.46 520.43 355.88 521.56C341.15 523.3 328.82 524.04 323.11 522.67L321.76 502.22L378.38 476.54L382.51 496.96H437.02C437.02 496.96 436.98 501.17 437.01 508.03Z" fill="black"/>
<path d="M446.2 504.17C446.2 504.17 334.94 527.17 321.12 519.97C307.3 512.77 304 494.29 307.95 473.89C311.9 453.49 307.95 402.79 300.71 338.27C297.06 305.78 305.1 283.98 313.98 270.33C317.805 264.486 323.027 259.688 329.173 256.37C335.319 253.053 342.195 251.32 349.18 251.33C361.256 251.287 372.977 255.417 382.36 263.02C385.14 265.29 387.95 267.16 390.24 267.79C392.05 268.28 394.77 270.26 397.82 272.94C411.65 285.201 420.274 302.282 421.93 320.69C423.08 332.95 424.28 348.4 424.87 364.02C425.479 377.35 425.349 390.704 424.48 404.02C423.868 413.767 424.321 423.551 425.83 433.2C430.94 468.86 446.2 504.17 446.2 504.17Z" fill="#575988"/>
<path opacity="0.1" d="M425.82 433.32C385.44 408.13 364.56 337.64 364.56 337.64C364.56 337.03 364.56 336.42 364.49 335.83C363.59 303.51 410.01 297.28 417.89 328.65C420.45 338.87 422.64 349.22 423.1 356.39C423.348 359.023 423.94 361.611 424.86 364.09C425.469 377.42 425.339 390.774 424.47 404.09C423.855 413.853 424.307 423.655 425.82 433.32Z" fill="black"/>
<path opacity="0.1" d="M366.21 230.66C372.77 241.79 377.97 253.01 391.31 254.9C397.831 246.408 405.439 238.81 413.94 232.3L371.15 211.89C371.15 211.89 373.62 218.87 366.21 230.66Z" fill="black"/>
<path d="M399.46 251.4C423.457 251.4 442.91 231.947 442.91 207.95C442.91 183.953 423.457 164.5 399.46 164.5C375.463 164.5 356.01 183.953 356.01 207.95C356.01 231.947 375.463 251.4 399.46 251.4Z" fill="#F7C4A7"/>
<path opacity="0.1" d="M442.41 221.57C444.214 221.642 445.996 221.153 447.51 220.17C449.59 218.62 450.26 215.83 450.73 213.28C451.86 207.28 452.73 200.88 450.73 195.06C449.43 191.21 446.96 187.89 445.17 184.24C441.26 176.24 440.57 166.68 435.01 159.76C431.53 155.43 419.33 159.76 414.22 157.57C403.22 152.85 398.5 143.27 386.56 143.28C382.167 143.167 377.783 143.727 373.56 144.94C368.22 146.62 363.5 149.84 359.12 153.32C351.48 159.39 344.04 167.72 344.72 177.46C345.16 183.68 348.86 189.12 351.04 194.96C354.7 204.74 354.04 215.69 351.39 225.79C350.27 230.09 348.98 235.23 351.96 238.53C353.82 240.58 356.88 241.18 359.61 240.72C362.315 240.111 364.901 239.057 367.26 237.6C371.54 235.27 375.88 232.9 379.34 229.48C381.63 227.21 383.48 224.54 385.66 222.17C389.911 217.648 394.743 213.71 400.03 210.46C404.25 207.87 408.58 209.46 413.03 211.17C422.72 214.85 431.71 221.77 442.41 221.57Z" fill="black"/>
<path d="M441.75 220.91C443.552 220.988 445.334 220.506 446.85 219.53C448.93 217.98 449.6 215.19 450.07 212.64C451.2 206.64 452.07 200.24 450.07 194.42C448.77 190.57 446.3 187.25 444.51 183.6C440.6 175.6 439.91 166.04 434.35 159.12C430.87 154.79 419.35 159.79 414.22 157.59C403.22 152.87 397.84 142.59 385.9 142.59C381.507 142.477 377.123 143.037 372.9 144.25C367.56 145.93 362.84 149.15 358.46 152.63C350.82 158.7 343.38 167.03 344.06 176.77C344.5 182.99 348.2 188.43 350.38 194.27C354.04 204.05 353.38 215 350.73 225.1C349.61 229.4 348.32 234.54 351.3 237.84C353.16 239.89 356.22 240.49 358.95 240.03C361.655 239.421 364.241 238.367 366.6 236.91C370.88 234.58 375.22 232.21 378.68 228.79C380.97 226.52 382.82 223.85 385 221.48C389.297 216.963 394.176 213.038 399.51 209.81C403.73 207.22 408.06 208.81 412.51 210.52C422.06 214.17 431.05 221.11 441.75 220.91Z" fill="#632652"/>
<path opacity="0.05" d="M425.82 433.32C424.327 423.68 423.887 413.906 424.51 404.17C425.379 390.854 425.509 377.5 424.9 364.17C424.31 348.55 423.11 333.11 421.96 320.84C420.305 302.432 411.68 285.351 397.85 273.09C394.8 270.4 392.08 268.43 390.27 267.94C387.98 267.31 385.17 265.44 382.39 263.17C373.04 255.53 384.92 270.41 387.98 273.09C401.81 285.351 410.435 302.432 412.09 320.84C413.24 333.1 414.44 348.55 415.03 364.17C415.639 377.5 415.509 390.854 414.64 404.17C414.028 413.917 414.481 423.701 415.99 433.35C421.11 468.89 436.37 504.23 436.37 504.23C436.37 504.23 361.89 519.65 327.24 521.3C354.4 523.3 446.24 504.23 446.24 504.23C446.24 504.23 430.94 468.86 425.82 433.32Z" fill="black"/>
<path d="M516.64 439.69C496.23 463.39 466.64 447.59 466.64 447.59C465.44 445.59 455.94 440.16 448.64 436.23C443.99 433.7 440.26 431.79 440.26 431.79L455.4 419.28L463.06 423.28L474.51 429.17C474.51 429.17 537.05 415.99 516.64 439.69Z" fill="#F7C4A7"/>
<path opacity="0.1" d="M463.08 423.24L448.66 436.24C444.01 433.71 440.28 431.8 440.28 431.8L455.42 419.29L463.08 423.24Z" fill="black"/>
<path d="M365.88 335.67C365.88 335.67 392.21 424.55 442.88 438.37L462.63 420.59C462.63 420.59 425.63 373.82 424.4 354.41C423.93 347.24 421.75 336.88 419.18 326.67C411.3 295.31 364.88 301.53 365.79 333.85C365.823 334.45 365.853 335.057 365.88 335.67Z" fill="#575988"/>
<path opacity="0.05" d="M314.86 422.24C314.86 422.24 331.98 408.41 347.78 418.95C363.58 429.49 386.62 428.17 389.91 428.83" fill="black"/>
</g>
<defs>
<linearGradient id="paint0_linear_104_80" x1="571.35" y1="746.59" x2="571.35" y2="6.58984" gradientUnits="userSpaceOnUse">
<stop stop-color="#808080" stop-opacity="0.25"/>
<stop offset="0.54" stop-color="#808080" stop-opacity="0.12"/>
<stop offset="1" stop-color="#808080" stop-opacity="0.1"/>
</linearGradient>
<linearGradient id="paint1_linear_104_80" x1="478.75" y1="418.74" x2="478.75" y2="383.78" gradientUnits="userSpaceOnUse">
<stop stop-color="#808080" stop-opacity="0.25"/>
<stop offset="0.54" stop-color="#808080" stop-opacity="0.12"/>
<stop offset="1" stop-color="#808080" stop-opacity="0.1"/>
</linearGradient>
<linearGradient id="paint2_linear_104_80" x1="478.75" y1="418.74" x2="478.75" y2="383.78" gradientUnits="userSpaceOnUse">
<stop stop-color="#808080" stop-opacity="0.25"/>
<stop offset="0.54" stop-color="#808080" stop-opacity="0.12"/>
<stop offset="1" stop-color="#808080" stop-opacity="0.1"/>
</linearGradient>
<linearGradient id="paint3_linear_104_80" x1="448.26" y1="411.54" x2="448.26" y2="392.96" gradientUnits="userSpaceOnUse">
<stop stop-color="#808080" stop-opacity="0.25"/>
<stop offset="0.54" stop-color="#808080" stop-opacity="0.12"/>
<stop offset="1" stop-color="#808080" stop-opacity="0.1"/>
</linearGradient>
<linearGradient id="paint4_linear_104_80" x1="395.54" y1="415.23" x2="395.54" y2="297.13" gradientUnits="userSpaceOnUse">
<stop stop-color="#808080" stop-opacity="0.25"/>
<stop offset="0.54" stop-color="#808080" stop-opacity="0.12"/>
<stop offset="1" stop-color="#808080" stop-opacity="0.1"/>
</linearGradient>
<linearGradient id="paint5_linear_104_80" x1="395.54" y1="415.23" x2="395.54" y2="297.13" gradientUnits="userSpaceOnUse">
<stop stop-color="#808080" stop-opacity="0.25"/>
<stop offset="0.54" stop-color="#808080" stop-opacity="0.12"/>
<stop offset="1" stop-color="#808080" stop-opacity="0.1"/>
</linearGradient>
<linearGradient id="paint6_linear_104_80" x1="342.53" y1="831.28" x2="342.53" y2="782.49" gradientUnits="userSpaceOnUse">
<stop stop-color="#808080" stop-opacity="0.25"/>
<stop offset="0.54" stop-color="#808080" stop-opacity="0.12"/>
<stop offset="1" stop-color="#808080" stop-opacity="0.1"/>
</linearGradient>
<linearGradient id="paint7_linear_104_80" x1="342.53" y1="831.28" x2="342.53" y2="782.49" gradientUnits="userSpaceOnUse">
<stop stop-color="#808080" stop-opacity="0.25"/>
<stop offset="0.54" stop-color="#808080" stop-opacity="0.12"/>
<stop offset="1" stop-color="#808080" stop-opacity="0.1"/>
</linearGradient>
<linearGradient id="paint8_linear_104_80" x1="446.35" y1="836.34" x2="446.35" y2="791.61" gradientUnits="userSpaceOnUse">
<stop stop-color="#808080" stop-opacity="0.25"/>
<stop offset="0.54" stop-color="#808080" stop-opacity="0.12"/>
<stop offset="1" stop-color="#808080" stop-opacity="0.1"/>
</linearGradient>
<linearGradient id="paint9_linear_104_80" x1="345.3" y1="810.85" x2="345.3" y2="480.07" gradientUnits="userSpaceOnUse">
<stop stop-color="#808080" stop-opacity="0.25"/>
<stop offset="0.54" stop-color="#808080" stop-opacity="0.12"/>
<stop offset="1" stop-color="#808080" stop-opacity="0.1"/>
</linearGradient>
<linearGradient id="paint10_linear_104_80" x1="345.3" y1="810.85" x2="345.3" y2="480.07" gradientUnits="userSpaceOnUse">
<stop stop-color="#808080" stop-opacity="0.25"/>
<stop offset="0.54" stop-color="#808080" stop-opacity="0.12"/>
<stop offset="1" stop-color="#808080" stop-opacity="0.1"/>
</linearGradient>
<linearGradient id="paint11_linear_104_80" x1="396.49" y1="816.88" x2="396.49" y2="500.99" gradientUnits="userSpaceOnUse">
<stop stop-color="#808080" stop-opacity="0.25"/>
<stop offset="0.54" stop-color="#808080" stop-opacity="0.12"/>
<stop offset="1" stop-color="#808080" stop-opacity="0.1"/>
</linearGradient>
<linearGradient id="paint12_linear_104_80" x1="368.65" y1="276.3" x2="368.65" y2="204.78" gradientUnits="userSpaceOnUse">
<stop stop-color="#808080" stop-opacity="0.25"/>
<stop offset="0.54" stop-color="#808080" stop-opacity="0.12"/>
<stop offset="1" stop-color="#808080" stop-opacity="0.1"/>
</linearGradient>
<linearGradient id="paint13_linear_104_80" x1="377.82" y1="528.07" x2="377.82" y2="480.07" gradientUnits="userSpaceOnUse">
<stop stop-color="#808080" stop-opacity="0.25"/>
<stop offset="0.54" stop-color="#808080" stop-opacity="0.12"/>
<stop offset="1" stop-color="#808080" stop-opacity="0.1"/>
</linearGradient>
<linearGradient id="paint14_linear_104_80" x1="371.11" y1="526.05" x2="371.11" y2="249.31" gradientUnits="userSpaceOnUse">
<stop stop-color="#808080" stop-opacity="0.25"/>
<stop offset="0.54" stop-color="#808080" stop-opacity="0.12"/>
<stop offset="1" stop-color="#808080" stop-opacity="0.1"/>
</linearGradient>
<linearGradient id="paint15_linear_104_80" x1="394.39" y1="435.76" x2="394.39" y2="307.42" gradientUnits="userSpaceOnUse">
<stop stop-color="#808080" stop-opacity="0.25"/>
<stop offset="0.54" stop-color="#808080" stop-opacity="0.12"/>
<stop offset="1" stop-color="#808080" stop-opacity="0.1"/>
</linearGradient>
<linearGradient id="paint16_linear_104_80" x1="389.05" y1="252.9" x2="389.05" y2="208.83" gradientUnits="userSpaceOnUse">
<stop stop-color="#808080" stop-opacity="0.25"/>
<stop offset="0.54" stop-color="#808080" stop-opacity="0.12"/>
<stop offset="1" stop-color="#808080" stop-opacity="0.1"/>
</linearGradient>
<linearGradient id="paint17_linear_104_80" x1="398.91" y1="249.31" x2="398.91" y2="160.24" gradientUnits="userSpaceOnUse">
<stop stop-color="#808080" stop-opacity="0.25"/>
<stop offset="0.54" stop-color="#808080" stop-opacity="0.12"/>
<stop offset="1" stop-color="#808080" stop-opacity="0.1"/>
</linearGradient>
<linearGradient id="paint18_linear_104_80" x1="397.75" y1="238.52" x2="397.75" y2="138.51" gradientUnits="userSpaceOnUse">
<stop stop-color="#808080" stop-opacity="0.25"/>
<stop offset="0.54" stop-color="#808080" stop-opacity="0.12"/>
<stop offset="1" stop-color="#808080" stop-opacity="0.1"/>
</linearGradient>
<linearGradient id="paint19_linear_104_80" x1="397.05" y1="237.85" x2="397.05" y2="137.84" gradientUnits="userSpaceOnUse">
<stop stop-color="#808080" stop-opacity="0.25"/>
<stop offset="0.54" stop-color="#808080" stop-opacity="0.12"/>
<stop offset="1" stop-color="#808080" stop-opacity="0.1"/>
</linearGradient>
<linearGradient id="paint20_linear_104_80" x1="385.5" y1="526.05" x2="385.5" y2="259.08" gradientUnits="userSpaceOnUse">
<stop stop-color="#808080" stop-opacity="0.25"/>
<stop offset="0.54" stop-color="#808080" stop-opacity="0.12"/>
<stop offset="1" stop-color="#808080" stop-opacity="0.1"/>
</linearGradient>
<linearGradient id="paint21_linear_104_80" x1="484.07" y1="455.67" x2="484.07" y2="421.37" gradientUnits="userSpaceOnUse">
<stop stop-color="#808080" stop-opacity="0.25"/>
<stop offset="0.54" stop-color="#808080" stop-opacity="0.12"/>
<stop offset="1" stop-color="#808080" stop-opacity="0.1"/>
</linearGradient>
<linearGradient id="paint22_linear_104_80" x1="453.78" y1="438.74" x2="453.78" y2="421.37" gradientUnits="userSpaceOnUse">
<stop stop-color="#808080" stop-opacity="0.25"/>
<stop offset="0.54" stop-color="#808080" stop-opacity="0.12"/>
<stop offset="1" stop-color="#808080" stop-opacity="0.1"/>
</linearGradient>
<linearGradient id="paint23_linear_104_80" x1="414.43" y1="440.94" x2="414.43" y2="305.4" gradientUnits="userSpaceOnUse">
<stop stop-color="#808080" stop-opacity="0.25"/>
<stop offset="0.54" stop-color="#808080" stop-opacity="0.12"/>
<stop offset="1" stop-color="#808080" stop-opacity="0.1"/>
</linearGradient>
<linearGradient id="paint24_linear_104_80" x1="349.45" y1="431.15" x2="349.45" y2="416.98" gradientUnits="userSpaceOnUse">
<stop stop-color="#808080" stop-opacity="0.25"/>
<stop offset="0.54" stop-color="#808080" stop-opacity="0.12"/>
<stop offset="1" stop-color="#808080" stop-opacity="0.1"/>
</linearGradient>
<clipPath id="clip0_104_80">
<rect width="1111.03" height="836.33" fill="white"/>
</clipPath>
</defs>
</svg>
