<svg width="64" height="64" viewBox="0 0 64 64" fill="none" xmlns="http://www.w3.org/2000/svg">
<path d="M31.4584 63.5788C30.62 63.5755 29.7852 63.4493 28.9737 63.2031L28.8137 63.1513L28.6653 63.0644C23.3009 59.9205 18.7752 55.7679 15.2139 50.7218C12.266 46.5201 9.9676 41.7496 8.42218 36.6247C6.5741 30.489 5.68499 24.0148 5.7973 17.5112C5.79956 17.3747 5.80148 17.2693 5.80148 17.1966C5.80148 14.0352 7.30276 11.2613 9.62615 10.1297C11.4044 9.26361 27.5497 1.51203 28.7162 0.951953C30.9131 -0.334763 33.2568 0.739216 33.6319 0.927009C34.4732 1.32906 49.3985 8.46477 52.6239 10.26C55.9479 12.1102 56.8348 15.4341 56.8348 17.1064C56.8348 24.6774 55.7131 31.7531 53.5007 38.137C51.714 43.3042 49.1817 48.0746 46.014 52.2403C39.9025 60.2797 33.7892 63.1296 33.7302 63.1548C32.9996 63.4486 32.231 63.5921 31.4584 63.5788V63.5788ZM30.0208 59.4163C30.5508 59.5552 31.771 59.7635 32.5663 59.4244C33.5767 58.9937 38.6933 55.8922 43.4747 49.6028C50.0809 40.9128 53.4329 29.9889 53.4378 17.1343C53.426 16.8739 53.2677 15.0165 51.1634 13.8452C48.0006 12.0847 32.4869 4.66977 32.3306 4.59504L32.2877 4.5738C31.9626 4.41454 30.9279 4.07911 30.2147 4.51598L30.0719 4.59381C29.899 4.67682 12.7606 12.9048 10.9327 13.795C9.65412 14.4178 9.19855 15.9605 9.19855 17.1967C9.19855 17.287 9.19656 17.4184 9.19373 17.5882C9.04766 26.3838 10.7889 48.027 30.0208 59.4163Z" fill="#3F3D56"/>
<path d="M29.4262 2.75712C29.4262 2.75712 12.132 11.0598 10.2791 11.9622C8.42613 12.8647 7.49965 15.0306 7.49965 17.1965C7.49965 19.3624 6.10993 47.6247 29.4262 61.2894C29.4262 61.2894 31.5424 61.9738 33.1479 61.2894C34.7534 60.605 55.1359 49.0535 55.1359 17.1063C55.1359 17.1063 55.1359 13.8574 51.8932 12.0525C48.6506 10.2476 32.9728 2.75712 32.9728 2.75712C32.9728 2.75712 31.0476 1.76441 29.4262 2.75712Z" fill="#3F3D56"/>
<path opacity="0.2" d="M31.2791 9.25537V53.5471C31.2791 53.5471 48.7278 43.7295 48.5734 17.919L31.2791 9.25537Z" fill="black"/>
<path d="M32 19C28.8174 19 25.7652 20.2643 23.5147 22.5147C21.2643 24.7651 20 27.8174 20 31C20 34.1826 21.2643 37.2348 23.5147 39.4853C25.7651 41.7357 28.8173 43 31.9999 43H32C35.1826 43 38.2348 41.7357 40.4853 39.4853C42.7357 37.2348 44 34.1826 44 31C44 27.8174 42.7357 24.7652 40.4853 22.5147C38.2348 20.2643 35.1826 19 32 19Z" fill="#FFD93D"/>
<path d="M30.5656 36.25C30.3126 36.2505 30.0664 36.15 29.864 35.9637L29.8515 35.9522L27.209 33.4702C26.9621 33.2374 26.8007 32.8938 26.76 32.5149C26.7194 32.136 26.803 31.7527 26.9924 31.4494C27.1817 31.1461 27.4614 30.9476 27.77 30.8974C28.0786 30.8471 28.3907 30.9494 28.6379 31.1816L30.3495 32.7932L34.3941 26.3144C34.4879 26.1642 34.6049 26.0381 34.7384 25.9434C34.8718 25.8487 35.0192 25.7872 35.172 25.7624C35.3248 25.7376 35.4801 25.75 35.629 25.7989C35.7779 25.8479 35.9175 25.9323 36.0399 26.0475L36.0402 26.0478L36.0151 26.0906L36.0409 26.0478C36.2877 26.2807 36.4492 26.6243 36.4899 27.0032C36.5306 27.3821 36.4472 27.7654 36.258 28.0689L31.5007 35.686C31.3906 35.8615 31.2491 36.0035 31.0871 36.101C30.9251 36.1985 30.747 36.2489 30.5666 36.2483L30.5656 36.25Z" fill="white"/>
</svg>
