<svg width="32" height="32" viewBox="0 0 32 32" fill="none" xmlns="http://www.w3.org/2000/svg">
<path d="M16 32C24.8366 32 32 24.8366 32 16C32 7.16344 24.8366 0 16 0C7.16344 0 0 7.16344 0 16C0 24.8366 7.16344 32 16 32Z" fill="#FFD93D"/>
<path d="M12.5264 24C12.2689 23.9992 12.0158 23.9318 11.7907 23.8041C11.5499 23.6713 11.349 23.474 11.2097 23.2332C11.0704 22.9925 10.9979 22.7175 11 22.4378V9.55898C11 9.27972 11.0734 9.0056 11.2125 8.76525C11.3515 8.5249 11.5512 8.32715 11.7906 8.19267C12.03 8.05819 12.3003 7.99192 12.5733 8.00079C12.8464 8.00965 13.1121 8.09332 13.3426 8.24305L25.2928 14.6824C25.5095 14.8232 25.6879 15.0176 25.8115 15.2476C25.9352 15.4777 26 15.7359 26 15.9984C26 16.2608 25.9352 16.5191 25.8115 16.7491C25.6879 16.9792 25.5095 17.1735 25.2928 17.3143L13.3426 23.7537C13.0991 23.9137 12.8158 23.9992 12.5264 24V24Z" fill="white"/>
</svg>
