<svg width="64" height="64" viewBox="0 0 64 64" fill="none" xmlns="http://www.w3.org/2000/svg">
<g clip-path="url(#clip0_107_355)">
<path d="M63.8005 31.6C63.8403 37.9288 62.0024 44.1272 58.5193 49.4114C55.0362 54.6957 50.0644 58.8284 44.2325 61.287C38.4006 63.7456 31.9706 64.4196 25.7556 63.2239C19.5405 62.0282 13.8197 59.0163 9.31636 54.5693C4.81307 50.1223 1.7296 44.4398 0.455909 38.2404C-0.817781 32.0409 -0.224502 25.6031 2.16072 19.7409C4.54595 13.8786 8.61601 8.85538 13.8562 5.30629C19.0964 1.7572 25.2713 -0.158332 31.6002 -0.19804C35.8024 -0.224408 39.9687 0.577168 43.8611 2.1609C47.7535 3.74463 51.2959 6.07952 54.286 9.03224C57.2761 11.985 59.6553 15.4977 61.2878 19.3699C62.9203 23.2421 63.7741 27.3979 63.8005 31.6Z" fill="#535461"/>
<path d="M44.9112 56.8613C44.9215 58.3097 44.7849 59.7554 44.5037 61.1763C40.5546 62.8804 36.3031 63.7725 32.0021 63.7995C27.7011 63.8265 23.4386 62.9878 19.4684 61.3334C19.1694 59.9161 19.0147 58.4722 19.0068 57.0237C18.9595 49.4967 22.7538 43.111 28.0182 40.9533C25.9047 40.0799 24.1585 38.5022 23.076 36.4878C21.9935 34.4734 21.6415 32.1464 22.0796 29.902C22.5178 27.6575 23.7191 25.6338 25.4797 24.1744C27.2403 22.715 29.4517 21.9098 31.7385 21.8954C34.0253 21.8811 36.2466 22.6585 38.0254 24.0957C39.8042 25.5329 41.0309 27.5414 41.4972 29.7801C41.9635 32.0189 41.6407 34.3501 40.5836 36.3779C39.5266 38.4058 37.8003 40.0053 35.6979 40.9051C40.9912 42.9966 44.8639 49.3342 44.9112 56.8613Z" fill="#FFD93D"/>
</g>
<defs>
<clipPath id="clip0_107_355">
<rect width="64" height="64" fill="white"/>
</clipPath>
</defs>
</svg>
