<svg width="884" height="605" viewBox="0 0 884 605" fill="none" xmlns="http://www.w3.org/2000/svg">
<path opacity="0.3" d="M722.022 124.973C727.401 177.912 769.315 222.285 808.894 252.035C822.137 261.997 836.436 272.264 844.786 288.65C854.991 308.643 853.195 332.221 846.655 350.117C834.743 382.742 808.089 403.514 777.259 404.154C750.657 404.719 722.155 391.278 695.707 392.811C651.443 395.344 622.313 438.717 603.499 484.654C590.198 517.15 577.303 555.122 547.708 563.223C526.884 568.945 502.188 557.716 481.334 540.675C471.262 532.444 461.33 522.604 450.298 519.011C443.75 516.875 437.27 517.134 431.085 518.057C374.546 526.517 337.199 587.466 279.656 591.76C240.794 594.689 198.23 570.47 163.321 536.075C128.413 501.68 99.9624 457.673 72.9903 413.545C53.8216 382.185 34.2686 347.821 31.3645 312.137C28.2534 274.377 45.4048 242.675 69.6206 226.953C93.8364 211.232 124.304 209.409 154.402 212.796C192.045 217.014 232.244 228.715 264.773 213.703C286.942 203.482 302.897 181.902 320.144 163.091C348.964 131.648 382.505 107.1 416.165 83.1864C448.384 60.302 481.194 37.6923 518.142 25.2127C544.331 16.3565 572.16 19.3467 599.066 14.2054C616.609 10.8566 631.196 0.474747 649.626 0.0246888C672.327 -0.570304 700.341 9.50643 714.573 39.2332C728.126 67.4648 719.162 96.8788 722.022 124.973Z" fill="#FFD93D"/>
<path d="M229 100V89.9565C229 89.9565 267.621 65.3044 299 89.9565V99.0869L229 100Z" fill="#535461"/>
<path d="M584 100V89.9565C584 89.9565 622.621 65.3044 654 89.9565V99.0869L584 100Z" fill="#535461"/>
<path d="M345.377 100.265H307.132C307.132 100.265 297.367 87.1083 264.818 88.048C232.268 88.9878 225.759 100.265 225.759 100.265C225.759 100.265 193.617 125.169 186.293 156.182C186.293 156.182 146.827 292.919 146.014 400.054C145.2 507.189 181.004 522.225 199.719 525.044C218.436 527.864 251.798 524.105 284.347 429.187L298.181 373.74C298.181 373.74 300.622 340.848 329.916 361.523C359.21 382.198 385.25 350.246 385.25 350.246H495.103C495.103 350.246 531.72 376.559 565.084 355.884C565.084 355.884 578.103 336.149 590.309 402.873C590.309 402.873 627.74 540.08 685.515 525.984C743.29 511.887 736.78 397.234 736.78 397.234C736.78 397.234 729.05 221.966 697.314 159.941C697.314 159.941 666.799 95.5663 646.456 92.747C646.456 92.747 602.515 83.3492 585.427 91.8072L575.662 101.205L345.377 100.265Z" fill="#FFD93D"/>
<path d="M257 274C295.66 274 327 237.288 327 192C327 146.712 295.66 110 257 110C218.34 110 187 146.712 187 192C187 237.288 218.34 274 257 274Z" fill="#535461"/>
<path d="M626.5 274C665.436 274 697 237.288 697 192C697 146.712 665.436 110 626.5 110C587.564 110 556 146.712 556 192C556 237.288 587.564 274 626.5 274Z" fill="#535461"/>
<path d="M268.523 173.153L259.314 182.745C258.535 183.554 257.531 184 256.492 184C255.453 184 254.449 183.554 253.669 182.745L244.444 173.153C243.994 172.685 243.631 172.11 243.382 171.465C243.133 170.821 243.003 170.122 243 169.413V143.02C243.002 141.688 243.453 140.411 244.254 139.47C245.054 138.529 246.14 138 247.271 138H265.729C266.86 137.998 267.945 138.524 268.746 139.464C269.547 140.403 269.998 141.68 270 143.011V169.395C269.995 170.109 269.861 170.813 269.606 171.461C269.351 172.109 268.982 172.686 268.523 173.153Z" fill="#E6E6E6"/>
<path d="M268.523 209.842L259.314 200.255C258.535 199.446 257.531 199 256.492 199C255.453 199 254.45 199.446 253.67 200.255L244.445 209.851C243.994 210.319 243.632 210.895 243.383 211.539C243.134 212.184 243.003 212.884 243 213.592V239.968C242.998 241.3 243.445 242.579 244.243 243.522C245.041 244.466 246.125 244.998 247.256 245H265.729C266.86 245.002 267.945 244.475 268.746 243.535C269.547 242.595 269.998 241.319 270 239.987V213.602C269.995 212.887 269.861 212.183 269.606 211.534C269.351 210.886 268.982 210.309 268.523 209.842Z" fill="#E6E6E6"/>
<path d="M240.562 206.323L248.908 195.731C249.612 194.836 250 193.684 250 192.491C250 191.298 249.612 190.146 248.908 189.251L240.562 178.659C240.155 178.141 239.654 177.726 239.093 177.441C238.532 177.154 237.925 177.004 237.308 177H214.368C213.209 177.002 212.098 177.52 211.279 178.44C210.46 179.359 210 180.605 210 181.904V203.096C209.998 204.394 210.456 205.64 211.274 206.56C212.092 207.48 213.202 207.998 214.36 208H237.316C237.932 207.993 238.54 207.839 239.099 207.551C239.658 207.262 240.157 206.843 240.562 206.323Z" fill="#E6E6E6"/>
<path d="M273.422 206.332L265.094 195.731C264.389 194.836 264 193.685 264 192.491C264 191.298 264.389 190.145 265.094 189.251L273.438 178.659C273.845 178.141 274.346 177.725 274.906 177.44C275.466 177.153 276.075 177.004 276.691 177H299.625C300.783 176.998 301.894 177.511 302.715 178.427C303.536 179.344 303.998 180.588 304 181.886V203.096C304.002 204.394 303.544 205.64 302.727 206.56C301.909 207.48 300.799 207.998 299.641 208H276.699C276.078 207.999 275.465 207.85 274.9 207.562C274.335 207.274 273.831 206.855 273.422 206.332Z" fill="#E6E6E6"/>
<path d="M353 342C381.166 342 404 315.137 404 282C404 248.863 381.166 222 353 222C324.834 222 302 248.863 302 282C302 315.137 324.834 342 353 342Z" fill="#535461"/>
<path d="M530.5 342C558.942 342 582 315.137 582 282C582 248.863 558.942 222 530.5 222C502.058 222 479 248.863 479 282C479 315.137 502.058 342 530.5 342Z" fill="#535461"/>
<path d="M353.5 321C372.554 321 388 303.315 388 281.5C388 259.685 372.554 242 353.5 242C334.446 242 319 259.685 319 281.5C319 303.315 334.446 321 353.5 321Z" fill="#E6E6E6"/>
<path d="M353 308C348.451 308 344.004 306.416 340.222 303.45C336.439 300.483 333.492 296.266 331.751 291.333C330.01 286.399 329.554 280.97 330.442 275.733C331.33 270.495 333.52 265.684 336.736 261.908C339.953 258.132 344.051 255.56 348.513 254.519C352.974 253.477 357.599 254.011 361.802 256.055C366.004 258.099 369.596 261.559 372.124 265.999C374.651 270.439 376 275.66 376 281C375.993 288.159 373.568 295.021 369.256 300.083C364.944 305.144 359.098 307.992 353 308ZM353 255.862C348.765 255.862 344.625 257.337 341.103 260.099C337.582 262.861 334.837 266.787 333.216 271.38C331.596 275.973 331.171 281.028 331.998 285.904C332.824 290.78 334.863 295.26 337.859 298.775C340.853 302.291 344.669 304.685 348.822 305.655C352.977 306.625 357.282 306.127 361.195 304.225C365.108 302.322 368.452 299.1 370.805 294.966C373.158 290.832 374.414 285.972 374.414 281C374.407 274.335 372.15 267.946 368.135 263.233C364.121 258.521 358.678 255.87 353 255.862Z" fill="#535461"/>
<path d="M530 321C548.778 321 564 303.315 564 281.5C564 259.685 548.778 242 530 242C511.222 242 496 259.685 496 281.5C496 303.315 511.222 321 530 321Z" fill="#E6E6E6"/>
<path d="M530 308C525.253 308 520.613 306.416 516.666 303.45C512.719 300.483 509.643 296.266 507.827 291.333C506.01 286.399 505.535 280.97 506.461 275.733C507.387 270.495 509.673 265.684 513.03 261.908C516.386 258.132 520.662 255.56 525.318 254.519C529.974 253.477 534.799 254.011 539.184 256.055C543.57 258.099 547.318 261.559 549.956 265.999C552.593 270.439 554 275.66 554 281C553.993 288.159 551.461 295.021 546.963 300.083C542.463 305.144 536.363 307.992 530 308ZM530 255.862C525.581 255.862 521.26 257.337 517.586 260.099C513.911 262.861 511.047 266.787 509.356 271.38C507.664 275.973 507.222 281.028 508.085 285.904C508.946 290.78 511.075 295.26 514.199 298.775C517.325 302.291 521.306 304.685 525.64 305.655C529.975 306.625 534.468 306.127 538.551 304.225C542.634 302.322 546.124 299.1 548.579 294.966C551.034 290.832 552.345 285.972 552.345 281C552.338 274.335 549.982 267.946 545.793 263.233C541.604 258.521 535.924 255.87 530 255.862Z" fill="#535461"/>
<path d="M443.5 321C451.508 321 458 313.165 458 303.5C458 293.835 451.508 286 443.5 286C435.492 286 429 293.835 429 303.5C429 313.165 435.492 321 443.5 321Z" fill="#535461"/>
<path d="M420 235C421.657 235 423 233.433 423 231.5C423 229.567 421.657 228 420 228C418.343 228 417 229.567 417 231.5C417 233.433 418.343 235 420 235Z" fill="#535461"/>
<path d="M433 235C434.657 235 436 233.433 436 231.5C436 229.567 434.657 228 433 228C431.343 228 430 229.567 430 231.5C430 233.433 431.343 235 433 235Z" fill="#535461"/>
<path d="M430.5 252C432.433 252 434 250.209 434 248C434 245.791 432.433 244 430.5 244C428.567 244 427 245.791 427 248C427 250.209 428.567 252 430.5 252Z" fill="#535461"/>
<path d="M442 252C443.657 252 445 250.433 445 248.5C445 246.567 443.657 245 442 245C440.343 245 439 246.567 439 248.5C439 250.433 440.343 252 442 252Z" fill="#535461"/>
<path d="M454 252C455.657 252 457 250.209 457 248C457 245.791 455.657 244 454 244C452.343 244 451 245.791 451 248C451 250.209 452.343 252 454 252Z" fill="#535461"/>
<path d="M426.5 244C428.433 244 430 242.433 430 240.5C430 238.567 428.433 237 426.5 237C424.567 237 423 238.567 423 240.5C423 242.433 424.567 244 426.5 244Z" fill="#535461"/>
<path d="M436 244C437.657 244 439 242.433 439 240.5C439 238.567 437.657 237 436 237C434.343 237 433 238.567 433 240.5C433 242.433 434.343 244 436 244Z" fill="#535461"/>
<path d="M447.5 244C449.433 244 451 242.433 451 240.5C451 238.567 449.433 237 447.5 237C445.567 237 444 238.567 444 240.5C444 242.433 445.567 244 447.5 244Z" fill="#535461"/>
<path d="M458 244C459.657 244 461 242.433 461 240.5C461 238.567 459.657 237 458 237C456.343 237 455 238.567 455 240.5C455 242.433 456.343 244 458 244Z" fill="#535461"/>
<path d="M442 235C443.657 235 445 233.433 445 231.5C445 229.567 443.657 228 442 228C440.343 228 439 229.567 439 231.5C439 233.433 440.343 235 442 235Z" fill="#535461"/>
<path d="M454 235C455.657 235 457 233.433 457 231.5C457 229.567 455.657 228 454 228C452.343 228 451 229.567 451 231.5C451 233.433 452.343 235 454 235Z" fill="#535461"/>
<path d="M463 235C464.657 235 466 233.433 466 231.5C466 229.567 464.657 228 463 228C461.343 228 460 229.567 460 231.5C460 233.433 461.343 235 463 235Z" fill="#535461"/>
<path d="M321.258 108C319.598 108.002 318.008 108.696 316.835 109.931C315.661 111.166 315.002 112.84 315 114.587V134.413C315.002 136.16 315.661 137.834 316.835 139.069C318.008 140.304 319.598 140.998 321.258 141H325.742C327.402 140.998 328.992 140.304 330.165 139.069C331.339 137.834 331.998 136.16 332 134.413V114.587C331.998 112.84 331.339 111.166 330.165 109.931C328.992 108.696 327.402 108.002 325.742 108H321.258Z" fill="#535461"/>
<path d="M559.521 108C558.057 108.002 556.654 108.696 555.619 109.931C554.584 111.166 554.002 112.84 554 114.587V134.413C554.002 136.16 554.584 137.834 555.619 139.069C556.654 140.304 558.057 140.998 559.521 141H563.479C564.943 140.998 566.346 140.304 567.381 139.069C568.416 137.834 568.998 136.16 569 134.413V114.587C568.998 112.84 568.416 111.166 567.381 109.931C566.346 108.696 564.943 108.002 563.479 108H559.521Z" fill="#535461"/>
<path d="M627 164C638.045 164 647 154.15 647 142C647 129.85 638.045 120 627 120C615.955 120 607 129.85 607 142C607 154.15 615.955 164 627 164Z" fill="#E6E6E6"/>
<path d="M585 213C596.046 213 605 202.703 605 190C605 177.297 596.046 167 585 167C573.954 167 565 177.297 565 190C565 202.703 573.954 213 585 213Z" fill="#E6E6E6"/>
<path d="M670.5 210C681.269 210 690 199.703 690 187C690 174.297 681.269 164 670.5 164C659.731 164 651 174.297 651 187C651 199.703 659.731 210 670.5 210Z" fill="#E6E6E6"/>
<path d="M630 259C640.493 259 649 248.927 649 236.5C649 224.073 640.493 214 630 214C619.507 214 611 224.073 611 236.5C611 248.927 619.507 259 630 259Z" fill="#E6E6E6"/>
<path d="M358.448 94C354.087 94.0058 349.906 96.0247 346.823 99.6138C343.739 103.203 342.005 108.069 342 113.145V197.855C342.005 202.931 343.739 207.797 346.823 211.386C349.906 214.975 354.087 216.994 358.448 217H525.552C529.913 216.994 534.094 214.975 537.177 211.386C540.261 207.797 541.995 202.931 542 197.855V113.145C541.995 108.069 540.261 103.203 537.177 99.6138C534.094 96.0247 529.913 94.0058 525.552 94H358.448Z" fill="#535461"/>
<path d="M640 153H614L626.552 128L640 153ZM616.782 151.144H637.117L626.599 131.59L616.782 151.144Z" fill="#535461"/>
<path d="M597 201H575V179H597V201ZM576.63 199.167H595.37V180.833H576.63V199.167Z" fill="#535461"/>
<path d="M670.5 201C668.225 201 666.002 200.179 664.111 198.641C662.22 197.102 660.746 194.916 659.875 192.358C659.005 189.799 658.777 186.984 659.221 184.268C659.665 181.553 660.76 179.059 662.368 177.1C663.977 175.143 666.025 173.809 668.256 173.269C670.487 172.729 672.799 173.006 674.901 174.066C677.002 175.125 678.799 176.92 680.062 179.222C681.326 181.524 682 184.231 682 187C681.996 190.712 680.784 194.27 678.628 196.895C676.472 199.519 673.549 200.996 670.5 201ZM670.5 174.866C668.529 174.866 666.602 175.578 664.963 176.911C663.324 178.244 662.046 180.139 661.292 182.357C660.537 184.574 660.34 187.013 660.725 189.367C661.109 191.72 662.058 193.883 663.452 195.58C664.846 197.277 666.622 198.432 668.555 198.9C670.489 199.369 672.493 199.128 674.314 198.21C676.135 197.292 677.692 195.736 678.787 193.741C679.883 191.745 680.466 189.4 680.466 187C680.463 183.783 679.413 180.699 677.544 178.424C675.676 176.15 673.143 174.87 670.5 174.866Z" fill="#535461"/>
<path d="M621.183 226L620 227.301L638.817 248L640 246.699L621.183 226Z" fill="#535461"/>
<path d="M638.866 226L620 246.644L621.135 248L640 227.356L638.866 226Z" fill="#535461"/>
</svg>
